<svg xmlns="http://www.w3.org/2000/svg" width="67" height="67" viewBox="0 0 67 67"><g><g opacity=".72"><path fill="#f5c506" d="M33.5 0C52.001 0 67 14.998 67 33.5 67 52 52.001 67 33.5 67 14.998 67 0 52 0 33.5 0 14.998 14.998 0 33.5 0z"/></g><g><path fill="#f5f4f2" d="M27.011 19.116c0-.9.431-1.537 1.288-1.909.862-.365 1.629-.219 2.306.445l14.79 14.822c.425.423.627.929.605 1.52 0 .57-.202 1.06-.605 1.465l-14.79 14.878c-.677.681-1.444.828-2.307.445-.856-.372-1.287-1.025-1.287-1.96V19.116z"/></g></g></svg>